<mxfile host="app.diagrams.net" modified="2023-02-26T07:05:55.981Z" agent="5.0 (Windows NT 10.0; Win64; x64) AppleWebKit/537.36 (KHTML, like Gecko) Chrome/110.0.0.0 Safari/537.36" etag="8PoUkA98I80h1XvXFFFm" version="20.8.23" type="github">
  <diagram name="페이지-1" id="t8tJyC54325WIKYcIS1U">
    <mxGraphModel dx="1593" dy="884" grid="1" gridSize="10" guides="1" tooltips="1" connect="1" arrows="1" fold="1" page="1" pageScale="1" pageWidth="827" pageHeight="1169" math="0" shadow="0">
      <root>
        <mxCell id="0" />
        <mxCell id="1" parent="0" />
        <mxCell id="2uCZJji-12LwHRI4Txzx-3" value="" style="shape=image;verticalLabelPosition=bottom;labelBackgroundColor=default;verticalAlign=top;aspect=fixed;imageAspect=0;image=data:image/png,iVBORw0KGgoAAAANSUhEUgAAARkAAACzCAMAAACKPpgZAAAA/1BMVEX////1hTadUCUAAADXczDadTGhUiblezOkVCaZTSTTcC/1gCrFaC3sgDSZRxPw5N397N/t7e1TU1OSkpKhoaFISEjz8/M8PDzHx8daWlrq6upgYGB9fX3i4uLNzc3a2tq+vr6JiYkNDQ1ycnKkWzAiIiKYmJiWPwCnp6c1NTWEhIQgICBra2v0fSD3nmX+9vD2kEkrKyshISGxsbEXFxfp2dDgo3v74NHfysHBlH7VbSP5tIjdw7W4hGyZSBf4p3X81buqakr2l1j6w6LFm4b5tozmj1jTsaH7yauudFjWkGXeqY/tikv4pW/959j0eAzCXQ+RMwDprIXswarXez24jElaAAAGUElEQVR4nO2ce3vaNhSHDWqztG5hGHw3xkBwuAaoydLcSNcsy9qt67ru+3+W6ciG3NBKlibmsX/vP5Zj5XnkN0c6kh1LUQAAAAAAAAAAAAAAAAAAkC77Px2k3YRNZPz2sHSkHh+M027IpnFyWpxvPSuohbN3aTdlozj5uTgvFrmZAnfz/h3iZkF5m3tJzHBGk3c/pt2kDaG8U7xuhgfO3jncEHfMUJ86z3OfKh8e7VEyumuG5KjHeY2bt79sl56ro8nFwcEqMxQ4F3mc4JRPd0rFredCwK9bK83wS5Oz/Lk52SUXz4WAH7YlZkjbXo7ciKH1pLSWGe5mtJeTifH48uM5n6+sbYbG4r3fsu9mfPlh+4jn5E8fX6xtRvSprLsxdkvzeBHw8j5mROBcZNqNsbsQcF8zlKjOszkY7//Oh5eHmCE3F3+mfRvfnf3TnVdqYfLHi4eY4W5ef8qYm/KX+YtX/M5eP9AMd/M5W2uGcqn4ncwUVJiBGZiBmVXAjAyYkQEzMmBGBszIgBkZMCMDZmTAjAyYkQEzMmBGBszIgBkZMCMDZmTAjAyYkQEzMmBGBszIgBkZMCMDZmTAjAyYkQEzMmBGBszIgBkZMCMDZmTAjAyYkQEzMmBGBszIgBkZMCMDZmTAjAyYkQEzMmBGRnn3u5kZZcvM+HB7/oo+oH2oGbVwlrFPcI39079G74+/lh5kRh2dZfF7f+oFD/r2Vp0cZ1BLgvHlf5tR359n7LPbm1zulLZeUre4p5nRJPP7O40vt494tzi4XH/HDBp3s74tRMxX+uuvv5cIbZeRdpOfknVjRlXPcra/3smX+Rpm1M9586KInSLm3IyqTvb+Xr0DWEF9fZbpdCRl/3DnqPDp/GD1rnG0c0g2d1VZh/2vYkq7ykxOt4y7xao9GLO9Q9G63DKT960pr1H+ULpmJhc7oa3L+GRndy7MqCNsD3yLtx+K82f52nFxbU5O/8FW26sZZ/GpFAAAAAAAAADcizYL027CZuJPO3Yl7UZsJF0WMSvtRmwiFa1ttPppt2ITsVhdaTKHit2aY+taK1QcV9NaVYN+1Jtq2pTGoYbfiOFlR+tpuh7QddcINc00/RTv4LGw+SDjsy4V25rOu1XAPNsiYzUq17izYBAqRrfKCdtsyi+16KfVDq/QZ32uzRhyvVmjQlIce0plj0V0cONhZ6hVDFcXlZqmkVS3WaDUzbYohzzSmqxJxfo0e/2xOqXuEQoZXtypkkOtVVfCQFRqzpLkNSSP3SRAHG6oyRqirA+fttmPj9ETf+z6lMLA04UAr7c0w680LCti09hMKCLEtZMIGprcTFzU3adt9+MTMZvGj2rH5Bo8TdyyZy7NODWzwxgzO8JMwHSqoA8TM/2pkV0zHlvQXWHGsFmnbTlOVfQmZzYQ3Whpxutl14w/8JIScyt3zdTj8VURZozOm3hM8cxk1LG17PamWjKAUvpt3DHjBCyepwzfVCgzB3HVIJky+7NqZs0YvWU69ll/VcwEVApmzOCj7yIxG25PHIYzI7NmgkUY0O0yo63HZpLcRJPjWdVotIcBm4VMcyoEv+a4vcho9PQ6hVr866adQvMfkVrzaurqt/0oFGYisS5QrD4fTgKv3eaTXD/yPV4ihjTI1PhJlwpRMk6FtSdvPAAAAABu4/iWZTW+XS/jxI/uYro0rTGqGq03zdCJK/g1fiGPnir6cvHN6F1LxV6caUKNSw8lWCeHL6gq2pUZrRKLmbquyQ/04NNlbOBqM8byN+UlM3ZNEEaG0uVGhny93aDnOJHid9ggUpRqi+nZeyL+DchMdXlm8L4VPwGlksYXmYzWSXUeQll8jfKf3DTjiEgR+M1qqIRxNyJNuXurSWbalKYty4870/VX3o0oorQUDNgslzGTMPCVPj/crePzkHFz9z8C18zwsPBWmel2rvpYjiAzV5OVJneweBzqVESY1F3K40EKTUuZmyNwwJZJKNI1l0sKzCSP545buakVp2mFXmgzU1EsPsljNUPyy5mGzDQVI0YxvMWQYjHqZQ6PmE4eA0a5uTqY1ZXGlB9dy6/SKb1Z4REV5/Q85ybWq9N776WnSDHaVxeDtFv61Fxfa89obRQkJ60gXhXk1swKgrZtu/lbWwMAAAAAAAAAAAAAAABIg38BL7fAzCz5e0IAAAAASUVORK5CYII=;" vertex="1" parent="1">
          <mxGeometry x="280" y="395" width="219.77" height="140" as="geometry" />
        </mxCell>
        <mxCell id="2uCZJji-12LwHRI4Txzx-4" value="" style="shape=image;verticalLabelPosition=bottom;labelBackgroundColor=default;verticalAlign=top;aspect=fixed;imageAspect=0;image=data:image/jpeg,/9j/4AAQSkZJRgABAQAAAQABAAD/2wCEAAkGBxASEhETEBAVEBAQERYTEBYSFRUXEBYVFRUXFxYSGBUYHSghGBolGxgWITEiJSkrLi4vFyEzODMtNygtLi0BCgoKDg0OGxAQGi0lHyYtLy0vLS0tLS0tLS0tLS0tLS0rLS0tLS0tLS0tLS0tLS0tLS0tLS0tLS0tLS0tLS0tLf/AABEIALEBHQMBIgACEQEDEQH/xAAbAAEAAgMBAQAAAAAAAAAAAAAABgcBBAUDAv/EAEUQAAEDAgIFBgkKBQQDAAAAAAEAAgMEEQUhBhIxQVETImFxgZEyM0JykqGxssEHFCNSU2JzgqLRFWOTwtIWJEODZHSz/8QAGgEBAAIDAQAAAAAAAAAAAAAAAAIDAQQFBv/EADYRAAIBAgMDCgUCBwAAAAAAAAABAgMRBBIhMUFRBSJhcYGRobHB8BMjMtHhM9IUFSREU2KC/9oADAMBAAIRAxEAPwC8UREAREQBERAEREAREQBERAEREAREQBERAEREB41FQyNpdI9rGjaXuDWjtK86TEIZb8lNHLbbqPa63XYqIaZxiSto4p3FtM4bjYa5JBz4+LF9wceKziOgTfDpJXRvbm0PNxf7sg5zevNTUY2V3a5W5yu7K9icIq+w7SiopXmCvY51hzXWBkHA3vaRp47cs77u5T6aULzblHM89jgO8AgI6cluCqxe8kqLwpqqORodG9sjDscwhze8L3UCwIiIAiIgCIiAIiIAiIgCIiAIiIAiIgCIiAIiIAiIgCIiAIiIAiIgCIiA4uk+Ctq4Sw2D286Jx3Otax+6dh79oC0dDsafIH09RcVNPk7W8JzQbax4kZAnfcHepQoTpX/tq2kqxkx55OY7BbYSfyEn/rCnHXmlc+a83eSquhgLbztjLGg5yhpa0Hbm7ILmy6O0E7AWwx6rhdr4bN7Q5m1dmaJr2lrwHNcCHAi4IO0ELjaMYO6lbMzXvG6YuhFydVhAsDfft7r7yop2V0yTV3qtCN1WjFXRuM1DK54Gbm2HKEDcWjmyDbuB4C67WjelkdQRHKBFUbLeQ8jbqk7D9059dipPZRfSnRVlQDJFaOoGd9jZLbA7geDlPMpaS7yGRw1h3fYlKKGaJ6SvLvmtXds7Tqsc7JziP+N33+B39eZmajKLi7MnGSkroIiKJIIiIAiIgCIiAIiIAiIgCIiAIiIAiIgCIiAIiIAiIgCIiAIiIAuJpbhnzilkYBd458Y+83d2i7fzLtrFllOzuYaurHB0PxUVFMwk3kjAjkvtuBk49Yse/gu+oKYRDizG0xLRM0vqW+RmHuPrAd0F3A2U6WZJX0Iwd1Z7giIokyI6caP8qzl4R9PELuttexue7ym7R3cLbehuOfOYrPIM8VhJ94HwZO22fSD0KRFVviUf8OxBkrcoJTrEbgxxtKzqabOA6grY86OXuKZcyWZbN5ZKLAKyqi4IiIAiIgCIiAIiIAiIgCIiAIiIAiIgCIiAIiIAiIgCIiAIiIAiIgIdouOVrsQnOeo/kWdQcWn1Rs71MVDtAzaXEGHwm1JJ7XyD+0ppbpO6nmijj2MLZKg7SWX8WOki59HirJRbnZe9CqMlGF371Jii843hwBabtcLgjYQcwV6KstCjWnWF8vTFzReSD6RvEttz292fW0KSrBWU7O6MSSkrMjeguJ8tTNaTd8Fo3cS0DmO9HK/FpUlVbUp/h2Ilh5sEpA6OTeeYfyOu3qB4qyVKas7rYyFKTas9q0CIigWBERAEREAREQBERAEREAREQBERAEREAREQBERAEREAREQBERAQl8oo8TcXnVgrW+Ecmh2W09Dr/wBULkuohWYnUscebaTMbtRgjaex1j2KdY1g8VVHycoO27XNsHtPEFaOjujEVIXOa50j3jV1nACzb31QBxNr9QVqmrX32sUum27br3NLQXEHaj6WbKalJbY72XsLdRy6i3ipao5j2DPMjKulsKmLwmk2bMzfGTuda4B6uAI7FBWNlYHtuL7WuFntcNrHDc4HKyhKz1ROF1zX7RtoiKJMj+lOjzaxjbO1JWE6jiLgg7WOHA5dVusHgwT4tRC0kfzqFuWRLyAODgNcdbmlT5YKkp2ViDgm7rRnFwLSKCqFmHVkA50bra44kbnDpHbbYu2o1j2i0c55WE8hUg3D2XALuLrb/vDPr2LzwPHZmyClrm6lR/xvFuTlHWMtbq28AckaTV49wUmtJd5KURFEmEREAREQBERAEWLrKAIiIAixdZQBERAEREAREQBEWLoDKLF0CAyiIgCLF0ugBWr825+u06pOTwNjgNl+kcR1LaCygCLBKXQGVHNM6uphg5SmcG6rvpTqguDCDzhfIWNr5b77lI15yMBBBAIIsQRcEHaCFlOzuYkrqxW2B4RLXgvkrnZGz2EvfIOBsSGtB3EAjuUhpdA6VpBdJLIQQRdwaARvGoAR3rn4vofLE/lsPeWuGeprWc3iGOO0fddl7FvaN6UOe/5vWN5KpGTS4Fof0Fp2O9R3cFdKUmrxenAoiop2kteO4loCysArKoNgIiIAiIgCiWnGOTUxgELg0ya5ddodk3UA2+cpaq2+UuS9RE36sF/Se7/FTpq8ius2oOxpf61r/tGH/rarOoalssccjfBkY17epwuqTfGQGkjJwJb0gEtPrBVkfJ3Xa9MYyedA8jp1X85p79YditrQSV0U0ZtuzZLERcnSeu5CmlkBs7V1Wee/mtPYTfsWuld2NluyuQjE9NKrlZRC9oiDyI+Y080GwNztva/autoZpHUVFQ6OZwc3knObZoGYc0bR0FQFkR1SQOaywPRe4aPUe5d3QWXVrYvvtkb+gu/tW1KEVF2RpwqSzK72lsIsXS61Lm6ZRFgrIMosXWpiM5jikeNrWEjrtl61iTSTb3GUm2kjl41pAIiWRgPkHhE+C3oNtp6FwJMdqTmZtXqDQPYtBrSSBtc42z3knae0qe4bhcULQGtBdbnOI5xPXuHQvO0p4nHzbjPLFcPxZvrudmpChhIpSjmk+Nva6iJ0+kNQPLD+hwaR6rFSTBMY5fWBZqOYAXWzZnssezYujNSxvFnxtcOkAr4o6COIOEbdUONzmTna29dDD4XE0prNVzR3p7ey9/M0q9ehUjpTyy6PfobS5eL4yyDK2vIdjQd3EncFtV9SIo3vOxoyHE7AO02Vfve+R9zzpJHd7jkB8FjlHHPDpRhrJ+CM4LCqs3Kf0rxOhUaQ1Lsw8Rjg0D2uuvFmNVO6dx9E/BSnDMEiiaNZofJvc4Xz4NB2BbtRh8LxZ8bT2C46juWsuT8XNZp1rPhr5pryL/4zDReWNJNcdPt6kcoNJ3ggTNDm/WaLOHSRv7LdqlMMocA5pBa4XBGwjioHjOGmCTV2scLsJ223g9I+IXV0QriC6EnIguj6D5Tfj3pgsbWjW/h6+r2X334dN9350YrDU5UvjUdFt7PSxIsQeWxSOb4TWOcOsC4UPbpFU/WG7yGqX4p4ib8J/ulV2z4j2pytXqU5wUJNXT2GeTqUJwk5RT7OhlnLKIu6ckxZaGL4RDUs1JW3tm1wykYfrNcMwV0EQNXNDDGTNaWTuEhYbNkAsXsysXN3O2g2yNr5XsN9EQBERAEREBgqq/lAkvWv+5HG31F39ytQqotMXXrak/faO6Jg+CuofUUYj6e02a2gvhlJMBmyWVr/ADZJXgH0mtH5l96AV3J1QYTzZ2Fh84c5h9Th+ZSrCMPE2Fsi+0gdq9DiS5p7HWKrOCZ0bmvbk+NwcOhzTex7QrY85SiUy5jjJcC9FAvlLrfEwA8ZX+6z+/uCm1JO2RjJGZtkaHt6nC49qqTSOsNRVyubzrycnEOIadRtus5/mVNFXlqX15WjpvOhT4bq4XPMRzpJmEeYx4YPWZO9c7ReTVrKY/zQPSBZ/cp9j1AI8NkiGyKFo69Qgk9trqtsMfqzwO+rPEe6RpVsJZlJ9ZTUWVxXV5lq6V0zpKWYMLmvY3lGFhIddnO1QRxAI7VWGHYvLHLFIZZHNY9rnAvcQWg84WJzuLq5iFS2NUXITzRbo3kN8085n6S1QoWacX73E8QmmpIuljri4zB2LQx6fk6aoeDYtheRbbfVNvWtPQyt5WkiJN3RjkncbsyBPSW6p7Vr6f1OpRvG+V7GDv1j+lpVSjzrFzlzc3QVzRyzSSRx8tL9I9rPGP8AKcBfb0q3cUgL4ZGN2uYdXr2gd6rTQel5Ssi4RB0h7Bqj9Tmq2Cp4lKXNfDzIYa8ed0+RWIPDI+sFTbBsYZMACQ2UDnN49LeI9i1MZ0e1yZIbNec3NOxx4g7j6lF54XsdqvaWOGdjkesfuF5GLr8nVHdXi+58NdzPSSVHHQVnaS71x03oswIoVhukUkdmy/Ss4+WO3yu3vUroayOVutG7WG/iDwI3LvYbG0sQuY9eD2/nsOTXwtSj9S047ji6ZTWjjZ9Z5J6mjZ3uHcuToxBrVAv5Ac/u5o9blu6aHnw9Tva1eWhvjpPwz7zVx6rz8pqL2JrwjfzOnS5uAbW9Pza8iY2QrKL0ZxCP6Xw3ha7ex47nZe2yjmCv1Z4T/MDfS5vxUt0oH+2k62e+1Q3D/Gxfis98LzXKay4yEl/r4M7mA52GlF9PiieYp4mb8J/ulV434j2qw8T8TN+E/wB0qvGfEe1WctL5lPqfoQ5K/Tn73Ms9ERehOMEREAREQBERAEREAVM6RPvVVJ/nvHc4j4K5lSWLOvPUHjPL/wDRyvw/1M18TsRbGi7bUdL/AOvGe9oKrXS2h5GrmbazXu5VnVJmf1aw7FZ2j7bUtMOFPF7jVFflLosoZgPBJif1OGs0nqIcPzKNOVp9ZmrG8Oo+cAx3Uw2bnfSU942cbyeLPUC635VwtCKDlauLK7YQZT+Wwb+otPYuK2Vwa5oNmuLS4biW62r3azu9T/5NaHVilmIzleGN82O+fpF3ohWzWWLfEqg88op7iR6SNvSVQ/8AHl9wqmw6xvwN+7NXVizNaCYcYXjvaVSLs2npHwWKGxozidqL5Vd/KTQ6ssUwGUjSx3DWYbjtIJ9FT6kfdjDxY094C42m9FytJJYXdF9K38nhfoLh2qmnK0kX1I5osjvyaVtnzQk+E0St622a/wBRZ3L7+U2q50EQ3B0ru3mtPvqN6MVXJVdO7cZAw9Ik5n9wPYvrS2u5WrnffmsdybeqPI/q1j2q/J8y/vga+f5ViTfJlSZTzEbS2JvYNZ3fdvoqdrk6MUHIU0UZFnaus/z385w7Cbdi6t1rzd5NmzTjlikCtaro45RqyMDhu4jpB2hbN0uoSimrMmm07og2N4MYLOaS6ImwJ8Jp4H91rYPWuhla4eCSGvHFpPw2qVaUytFO8Ha4tDRxOsD6gL9ihkDC5zWja5wA7TZeVx1KOGxUfg6bHbg/yt3YegwlR16D+L0q/H3ckGmjOdCeh49bVq6IyWqCPrRuHbdp+BXZ0sp9aHWAzicHfl2H2g9iidDUmKRkg8h1z0jYR3Eq7Gv4OPVR7Lp+j7rFeF+bg3BbdV6lkovKKVrgHNOs1wuCNhBXqvS7dhwziaVPtTuH1nMA9IH4KLYOzWnhH8xp9HnH1BdTS2uDntiabiPnP845BvWBfvWNEaUukdIRzWCw8537D3l5vE/1HKEYx3WT7Hd/Y7dD5ODcnvv4qy+5JsU8TN+E/wB0qu2/Ee1WHiniJvwpPdKrxu7rHtUuWv1afUzHJf6c+v0ZZ6LCXXojimUWLpdYuDKLAWVkBERAEREBgqja195JTxkee9xKvIhaf8Lp/sIv6bP2VlOpk3FVWnnsMHFoIBwhj9wLw0koeXppowLuLLs89vOb6wF0WNAFhkBkANgHBfRCrvrcstpYogOvszvsA2noHSrpwai5CCKLexgDrb3bXHtJJX2MMgGYhjBBuDqNvfjsW4rKlTOV06WQ8KwXjeOLHewqi2Hmjzfgr6IutP8AhdP9hF/TZ+yU6mS+gq0s9tRhDrwQHjCw/oC2ntBBBzBFj1FI2AAAAAAWAGwAbBZeFdWxwsMkrgxjRmT7AN56Aqy3YU3VQmCZ7Bk6CUhp8x3Nd6gV0dEcN+cVLARdkf0sl+DTkD1ut2XXPxKqM80kmqbyyEtaM3ZmzW2G02sOtWdojgvzWHneOl50nR9Vl+geslbdSWWPSaVOOaXQjvrSxOOR0TxEQHlpDb5bdufGy3VhaUo5k0bydncr9lTU0x1bvit5LrFh6r3Hcts6T1NtjOvVN/espjJE1ws4Bw4EAjuK1HYNTHbAzsbYdwXI/l+Ip6UaztwftrusdJY2jPWrSV+Kt+CDVVVJK673F7tgHwDR8FIdHMFc0iWUWcPFtO6/lHp4Dp7u/BSRR+BG1nmtA9i2AFPDclqnU+LUlmlt6L8Xe9yFfHucPh045V49Wmw83sBBBFwRYg7CDuUHxfBnwEkAuivk4Z6o4O4danqwVt4vBwxMbS0a2Pga+GxM6ErrY9q4ld0OJzReKfZpz1TYs7t3ZZbM+kNS4W1gwb9Rtj3km3YpdLhdO/N0LCeOqAe8L5jwinabiFl+loPtXNjybi4LJGtZf9eX5N143DyeZ0tewgDbEi5sCczYnrNt6nuC8iImtgcHMG0jbc5ku4Ern4noyx13Qnk3fV/4z/j2ZdC4VFh84nbHzonE5uG5o2uB2OH7hU0IVsDUs6ebNpde9O1dpbWnSxdO6nltrZ+/LZwJpih+gm/Cf7pVdBWYWAixzByN9/WvH+Hw/ZM9Fv7LoY/k94qUWpWtfdf1Rp4TGKhFpxvfp/BCxpBVfan0I/8AFP8AUFV9sfRj/wAVNP4fD9kz0W/sn8Ph+yZ6Df2Wu+TcU/7h98v3Fyx1D/CvD9ppTyP+bcoJCx7YeUJAadYiPWsQQRa/BalTWSRugJlL2FrnzXazNutGL81otq698uC7pibbVsNW1rWytstbgvl0DTtaDzS3MDwTtb1ZDJdOdGT1Umnpx3dF0ug0Y1IrRxVrvhv+2452BVMj+U5Q7HjVFgNUOY14bltsHLsLyZEBcgAX22G3K2fYAvVW04uMbN36SuclJ3SsERFMiEREAREQBERAEREAREQEY03pqt8cRpeU1mPJfyTyx2qW9BBdnuCgxwrEJ3AOiqJHDYZtaw/NIbBXAsWVkajirWKp0lJ3uyJaL6IiAiWch8w8EDwI+kX8J3Tu3cVLkRQbbd2WRioqyCIiwZCIiAIiIAiIgCIiALFllEAREQBERAEREAREQBERAEREAREQBERAEREAREQBERAEREAREQBERAEREAREQBERAEREAREQBERAEREAREQBERAf/9k=;" vertex="1" parent="1">
          <mxGeometry x="520" y="405" width="193.22" height="120" as="geometry" />
        </mxCell>
        <mxCell id="2uCZJji-12LwHRI4Txzx-6" value="" style="shape=image;verticalLabelPosition=bottom;labelBackgroundColor=default;verticalAlign=top;aspect=fixed;imageAspect=0;image=data:image/png,iVBORw0KGgoAAAANSUhEUgAAAOEAAADhCAMAAAAJbSJIAAABIFBMVEX///9tsj7///5tsUD//f////zj9OD9//+ixY1opTppsTb///ptsUNtsjz//v1usT2EsGPZ5sxwq0Py/ex+rFVssUUAAABgry1qs0L3/PXl8ttzrUtntTxoqDb///eix4Os0JNnrC3R5cXu9uK82abr6+u607D1/fG/266Lt2SYxn7///KoyZHf7tSAr1D3/+d8rFeTvHp4slew0J3Z5dFxpETK3ryXl5eYuoSjxZHL5sCArFzf8tCvxpikyn+ZwH+tzp3M5bWVxnJqozFvnETg8MhpqkzT6bHu+9+HuWO02JyOr3e4zazl/NnS3sXQ47XB0J203pr1/9zc5NGEr2yDp11kmTekvI9KSkq6urqpqanPz89oaGi8z7SRkZGEhIQlSWJvAAAaYElEQVR4nO1djV/bRpoeSTPIGmksI+FatjUG2xQJsEE2sRuMU6BpKUm7yd6u297d7t79///Fve/IBvxFLBJo9n56moKRpdE8mnfer/kQITly5MiRI0eOHDly5MiRI0eOHDly5MiRI0eOHDly5MiRI0eOLw0d/vuisBkUynQGv+maU0yTUsKoyTYoTid2A34VGfxjKy6Ag2wNgyJ+q8NF8M80Z+erkylU0zTX1/DRGjFFET/Z9upTGDOL1cg/tjcpXzcJpcjCbqwpbi1sm1FmmwgdKqXrOtJSVG0df5lm1iJVqZRCeY3G2ieL1Ak7swal9iYFQmOTtB7Q7tkqNG02s0iLd6UB5bRUbF6iF1df+Rjgsmi0W7oo9c7GjXVtxGjk8aAZb1TNN9/v7e7udc5GPojb8vf2+k5WJNH57l6hS2ntfK9QKOx14ltWTEkNe0eXR73WJjVYwunhW41XeBBYv2IXUDJrF1NhUYIDP0xgyJsxHAG5gWPwU7ExsXPYuo6da1p1dlLhUBzn1uB9lerEZHgFXKDreAFhrbO4jf0MJGfG1kw7rK37XoVXWqY5lpUmFNHkViFSZ1T7nIcV8QOet17YVsJs9LgrhIBayTEIBTQjqhWiVIISNCADwtE9v4wb+DipXgTFg1emXe6uJDptsRNHGNzgXBPydYQ67O4c9WCipGK18GR1tp5WN/2D6ZEXOpVtQmoygBo5XLjyXJ1Qk4Yoi7IX3Z28ObpvuWP0rnZPZHJMaeT7VVP3uzVGizaLTn2oY1TrHtPo2PdBD8CRY2L63e4pNAP0YWLD59qt7/uRPmNoCKNeSiRIRbNDsBux41qt242QDyHXHpc/+34DpM9s+Fu1mm8DX32JIRf9kqe53LuF6/QzN5Q/CCGH2cgpjJpC658Cjy6UfLpjWa9PLz1u9W4JNa/eWiXWTd5aW9WTtze/j4hZsKxfTjuWFFYBu1lj3POaTcvz6taPMz0EDLX9xvFPiRNyq21Te9gbyCYPkqvIpHarbnDNsn5vmbTWObEkoDeeNsp8Gw7GjbE0Qj7Cxu+L0Lu2QvfoKQy5x919EEgGBi+qh4HzgwQJ4aVjyvaawc3PVkV47aguguZHau/ywPhBck9weQg9dPyj5FxykPLK7+37NtRiQu2RJcrNGJRUCUoLDOhFezYZvhUagMtraE0ZBiEXQSW5TU3CHMOK1abM8DQBZbG2dMOk0Q9d7xFFtQa0ZnHHkTtxpINF9+vCEK4leSiwDnvccJqGW/H8ap07TdBku4FwKq7lhYGQXcqO3HLz7PYoLIujLkvNKeuDQMWorU6EK/ZMnXy0ZP+wLzTDqpEziTcoA0Oz2Kjzwbt3XqgZu2S5H3Lrloy548oR2Jz3zbLomJe83Bxm7oe0UZAhqpr+Nbgi0FQGT8Y/9YUwjnSyJ0BKrKT0C7tnqLnO3t/2oQZ8SI77vAzVbknRvLSnCmXGkJFDwxU9AmL667hBTi9CAebG/4ssa/Ln21qVVsmH4TFhnUCEJX2FpjHeX+14QTiokaJdMsLmR7LfDI2CnZWhaR4XUCkYXL5pUGSIZm8fHv9JAxkG3jXoeqB+14YiadDGSSAqsQkMHeuWIsPXM+N3z/AIGbIGZf5Po3i/XNFcOGzLspA/EVRTpLHViuMjV4Tv7BUMNSm5G/JL+G5shdzzUdzC+ikxswkqnN1oHVpNLrg1Um3Y3Gb0uukK0MzAUJSgcRiJ+ncM+SXI8zvhcqhvTzjN96e73JFXOlHG5J4hOwTJ2AVluzewHA660XH3wbRKjYO1QB9ztCObcF/XCN+xZV3qKoNjXdyCkO5DT+//5RZFi2c2+uhU22a357huuKsYyhYzr6UTpgwrR+BFzTGEWhPzkBvQIrQ7cPnNTbniJLds5iufGBy/IrceL/P3xL6UYSgH7zwnqOwDCengowR8lEIEVr8eIEOy3IbcsrxJ7LOiTg5D1yhbby1Hc3ghoysIXe8YTXzjCBTzUcrwmpJYlMO6jQz5EUH5m2cIfQykaB9o/OyIZrMpD2sMzL8+ZShQ/5E9ZDamt5YQznu/AS3aBIZMgppB1wLbn7+7ta8dja9i6HjjKIrARbBpG4qA1sMfrqhXMzLUfy3F7WPdPzQET9uQHx0fH8Kvw8ajDDVgaLb7Rn/0quajiwy+3Yyh+35r3AExaB4S+hMYE+tvtJGErlQMwdBc240q6Vc0vk/IGV/NULytEfTAwdmL0R410XSC5FqZxXS/0rQGyQDsA1yLDEMt6XPogAefYCigV/21yZ3d/ff7ccu3mX7H0OA3TQ6aZdAFQbZALL7/eMjBwABD0hfcqL9LrliJGyLZ37MqaxjKGsNQAPp3LxTi3TUCKgbtkJWhK7QQGTV7jKI9hA7JHbBZkY32cMawzg3FUOAtgCHc9D0xu5YB9yzzpry41enM4nNDcypOuSm70AGiBJwmMD7CEaofXsoAfc4zMI2gf6C48mqG/G1buecEOnRowPkocAVogKxiag7rTRFAFa29qT2U/zGABrhp2ZR1JAdDByqeRCeSvx1SUBuVZgHUb6lpNN8T6u+5HAiC8PDe9L7sookMDFnvnMKV1BwNINSQvb/1K3IfQpNagveTZySaNCFcGIzPpAT/CR1YRtseFLVN6Ph3XgGLn1rYA/Cc37awFmT0ttx8m1FMKTsdxZ1O5/oWZIwphuNafB5vgfoxu3EcvyIqZBrGoyG4UdtwZBvU5od4GG/R7okLEnfSvzFcnhxPHxl+NRy2xj4UaJu0WB3vd86uI9qNh1ukYZqn+yp4pLY/6ryJT0kEp2OYRVH/Yi+F/ucfxHBwqrr+Ho/ioa/yNz7cfvj3bPYQQoSZ+lWGHe2helwU/AxlWymGgHgiATuYXqOEB1yLHufv4Nbk+FALkzSQQ81ApoERVqpYTH0dFXCBd2Ki0cQbqjhex+JRPE2wuv5xtGdoYhAVU2o0tT9U1VK30RFMuWUL9BlWF8JXhJ4ybKWVwx8MqocKBD4XZ/EfVRIFR0A/cqP/l2r1eFQXYY+l9VIEsW4QDU4rhAEwBsh60VYBIdZZnz5WqDWGpGajaJ7v9B3XcQvpE1KR6rQR6DSefGIOLr1MRfTIsCxbJM3/6JiHS/NlJtMhUlcBNlYVHgsDAdQvwUhZJ31Pq0B/IrOcBZuaDXx0afyOpdmKMxStK74g+KpozAFhS9p29ftKCJ7+4FZl//Cku/LUM8O/VDLBXKKQAZFX4dCGmykrprdLEHqDQ8at0hhoZYy952DregF9h3djk35OOZ9CtXd4WOpuWFWb6tHH3cN37472WrZufh5D8B5rw4Nhtwod9rMa6RMAYSHYJTYS+JSQbqeZzLsDTwI8IFA52EdRiJ9ezqdhgrajbKPkNnYNUECgLE2lCLImiOZQBJNkYoGgVjNGR5nxzMXnyJEjR44cOXLkyJEjR44cOXLkyPH/Grp+9+HTmJ36rFnNLw0cOdA3zXgyNXZgms+Zmf7ieEo299+Loc5sW2f+q1fbG+AVoF1l7AnTdf9EMGZvX+5Y0toQ3k5n64vd/Jmz7GqSb5Ftl6TIAs5v9iL2eUMMejo9HccS05FJYkftbrc1iq+uzjqdHqAEmEzwU2Fv7+wqPmh1u+2oOu1TVCkEVCOPVcPUGaXs4EaoWZGbwuVcWKXxZ9BTqk3xwjnELKptH7w5KiV9T0rJ4QE2cRb0Q+DfAr606v2k13nT2variiW12eMqASf6sj0rDI0sDB1HC0WYdD+nCXGQF4eyq+OPhd6OJ3HSE+dQdBDAv8BBlBH4C/9XB4GmpgkXmV5cxq22fT+ff+2NqLkvNQF1zgDDMQxNaMnpZzDUCWv4rbPehSddIAb1dzXXnfYC+IANN/3sund/GEhcS790pdefFEbtT4w42iQaBI7hulkYgky7rhG4BUY2G2tcxVDX2z96Bq+o8pBI+vCAg4G4e5qzPwx8rilnzQjUQfxDem8eF1PKzo1MffAObpkPuneTKjIThB64ZWkPqDwRBi882lmKpGs9jSA8R278Yj95XgFowC3L+BIMzx9XB9UefypDEBHv45OH71+M4UiWn8gQ1JPBS9HXzJDaphldNMuP3cN4vA6uPMs8Z/eLM3ykH0LdDizxaBt+qgpisNGKtj+JIXzRTnjgfIrhY3XgsvAVM2SEFcAIiUfuIRTJR743hNX9ehnapHsD9MQad6ZscMPqJ3WNa8Y6fwAuD0rpStuvkSG1J49LoJiMT6NuT4aaG6w5x3Ud6wPOpPoqGZKhxR8jyEs+TvM8/kXwdW0IFXTd5HSzRdAvzzBKxGNBU+ANiZrdOvb4Wm0EDIV8D+LwVTJ8E4QrXNI70qJeo7gAllQT7qWOz9ITAWcfKA62aPacxnMzbDRo2yu79yGFMgsGBGncMLjSPcLz05RhdUe48F3AQw0CHbGkXENZsLMvXn1mhiaEhQWImR6UjzcLy4Pe/tVvnlhm6ArDuzg7KCSCLzqyhooxvjaGhI4t1TIPCUJVh3C231PCuMCQez0IePVx4i2KqhfyXiOzwXhuKQVLkfah+zNBRi/GanVAu77M0OD1mrqyPXG0+VqJMpcjlnU7i2dmSMnICjUMmWcnuo5wIVCgNoOQ72gVwxJ8UWUUmtiAS++1qwDPll/4WWOM527DqMTnjbgreKIaiZqUrGQ4gb6r8gV+CdfyPhBVAb7N/lfFEJTCgVNZcNb4YCtdk2LiAq8VDAc1tP+6TfV2ifOFmoVJO2O0/6wMbfs24YvuaGrf0cL7l8YyQ03I0q1N0zGn7kAsXM61gp7Nc3tehuycL4SFQp4Tli4DjXpCWcl5hqBO+KSGq1xwKUxsLTB0uFXLRDBl+DyZKNCW4/nskxuAkw0+KCk2THJ7wSvGMkM8ILztdHWPyX7h8wxREzFim5srVGQoheO4avErOrhithg25LNVsfejCBzXSE6BLe84qZ50VvfD3qLNFt4ICKIeub0oB+GKNlQNZYBpVyONOviqCwzDutq0YmNRVW0IOopjM0Jtwwpw8Dyv3u9flA6PLguA1zMcHR31Skm/XvcsKeFRhCEwdsqY511mCLUegqV4CKF5vQa0rW2qPR6C8jqGvJL4mOiEw+fzng2IsZv4NIO2SaVUwxgGRyTqF703b4at7dqpHwF8//S0fQf/FPcWqUbHx+3uduvg6jLpe47glUooghVtaPrJQjQkcA0wrscrmh2JjucahsLgbk9tRmROvYL7IqAV5D4EipsS1KcMpTdIelcH3S0/8msfhvHr14VfoLVu6uVy2Sun8Mpevd5Pfuv1dl+/iYfbQPd4PD4rlICnoS0wxEAu1vh89w74pEFwayY68hS/1f0QaDhCDtX2OcQuiGB6OBUDuGzgPz5GMgfK7Nrv9dLZx/ax77fi16UEJBB3PuAcRy3UeMV9P8S+ikMX6fjTDTT4sOvbUfes17fOHwiOjstCt5LFkClwh5i00Um1dF/nFQzV0SQiuEyNbctAc+eelHDPM2zGVYSw7JVf9bfj1xfQvZzl0GwNBOgD6H/WTVLaG8HjGb960PlNHKy79MRC3oXX21hrRj7W3fvbrGEoDwiEjcSsJoZYCP2F1918CSszKRu+6Q2kGh6Eqzc3GyrOgyYNA2+w80c8l5QGxwssRbAQ+IqeWuJrNw7h2XyCocaTiJrYF69wBfp8ObxX3bgN4XGPf0e7gJpfC7Mk3nG8TZkZIAkq+I+HXcMumj1XlI0Fax+rkMJuW6Fxb+bWMNRkK926qiVBuc4zLMuPmzOEAO4GlH0ZU5Yq35OFoKuuAc3guWJXfyilZCiXnpbwXhGGmZZ9Pn94NUM+zQFHA1GerxW44xdgMTZqR1zy/EV8GmdOlzIaXSyXKOoRbpRD2GS+adcwFKVI6RP7UDgLDMF3w41bNuqLz+OXFkkslzOf4rAKzphN/P4mDA0xSD1QHTyj+eqBbRLJ7YbDws/kebcH2rK4i0uUUZvU5EYMw9meYmdiwa5i9xadpRHFb//zv16OYSwXE/TYXQtonHTSnWcYAEN7xvBeARmCT7cXPBBL5gK0eH9pRPHbb/775RgWFkcp8BZuh6jdHIZLDMm0DQPt4VW4rQxi2AyWBcKRS6vdX5ThbxkYOt50MgkyfAh+NWXIVzIczjH89ttv//HNd/DzhRjuLMbmWsqQrWCIhk9pRd8L5qoxk9KVDI3mwVzm9J/fTLGoYJ+HITsJF9UfMiykbThe0DTNP9I9KP4l5rMyM4a/rmKoNWP7IZl//M93//vNP7/77ruXaUO9VFkxai8ucX8gndSshRFfax+Mt309mBfeB7p0xdCja8SkMR+wvWg/nPBV1uKwStPNoOZdDNzR4+qq583L7l1qmPRWMRTW8E/VNFfGihFD5dPAf6znPryj4/CQN10jXMhX8JlP827V+DjfWZq68KIMtz1eXmYoXyFDBgZubkIZxM/LwzDQ0aZRYBuisOWIgE+WNpApLivSZ2NI7R5fIVgQWxSLDDeiEuWH2Xpw4cuO9oAF5ow06IYmTmfbXootXE3tTbjhjPhnYWjS1bPYeiRNIU1EsDC7Zu6vdIgR40PMZ10JbeFkw+BickyLfyJDm+qvV0xjw2k/SrRGFn8s1Fb1kfs4/RjEIRFuedHzFoOf4NuNMorPlvNu36xgKKcWrtpztcem0mJ9Eh+zctRsWYEwFkd3vHPc3u1PZIgbhJ0ta1NDTBrpCWPrsflDahA1hhCXsqJZEMFSWC4w4WOv3Rd8gSF5ljbUCUu468xnhB0hcQszE0T1jayIB7maeZTLoXeJpZgNVq0vd1E3uMqQ1cdhaFDGDqjsT04uWwGcpozTKgy+yxYe6fIsGtwsFuMkUB9Rzwk0Y9mipOBuuvU8FHm+FIVB+ybR5jMVgeHtTaiGKKYTnzMRRFMGT8cxwuB8sePbk3DRZBjc+khoUQf5Oi05fN0EIeHudNXjatAta3HcAlAeZphPy0za7iWDcpCOumRlqAZrQi7loPRh8ZUH5itvITYXjhCJTxs4gYG0J3INQ2Fc1KYp38bS2A7aERCEzccQizZtRFF3f7eUeFIsz2F5nJ/gwlHjAePIXxRSUAUFg6vVBPcMQZ0W9CLD9SXEf23h2AV+jwl1Lc2tO4LLSU1lu23MFSzOVgAfz3qVZb0XWJz2b5fxth/Vxr92Sn2ZpobBy1BrHdSygzsIkWYj1MAb7tTplS4xr39a+3Be+qOxKDh6O0ERm28FPhsDBjVydoM7muJsGycdqoNfIR+c+9NHZNYGfNEzAJ2Raaapno4fWoNk0onH7WO//erg4PyXUnLjWVJTq2YQ01/NpovbYlreyeHk8uqgteU3/K1WfHnhSYMv3Rea6QxXqCw0Aq+Pp3tOErbVG6iBEPU0VUsKWdpOL7cp2Sq5izOLDVFJss0WThlidwJ5uzns7Q9f+X7EGlG73d7e/jA8eIh/DT+0tmvtNpxQjfzuMP5jkliq0UOHny8VDVH7b8ZS5MP5RRc9SoYBLOte3liOoQZicfBtcLjdUFlCTOT6JZcvdhuQ+4NMBFOL74AaB1c4XdPUlPWLUu+yEx8cDIfb29vd2ym62+MWUo47l697pYHnWS6vcFyDYjjlFW2oN2zy0RMLK50cgzv9Kpvu0GmbZnvYKQ0sKb2bi/Nhm929E4L4PckdsRCjuGApss9UkMouu6lSCBwcxg7UWJorHcezvLQTeo7n4YovdzrczdXotpOOz8Chlb2jCj72ilA46YLNoDN9wWy72m5HD/oxTl6rTYxFLeMaQegNnzKfZnVWf+2iwIXTptKzesbQeGl2mrpmMFJvrVEMdb2o40uE7t8JYpqUvUocvugxCHi6kwyjTvcMn3HWFyssj9BAVUOrgPOCVzeHTmnjzAOdtLDQDWVlMM66u+czMyyS9o8rzga7I5PR8YwRYG7RNmuV8MUQ6DEtMPQKdtbp7M/MEIz2lRTOoout1v3JUquqHkL6phxcRsvQ2bG7l5YmvOUOATHUzi3JMIT/EgxNnfqJMFb1RbD03kVcq+IbrnCJt63Sn6w2nNSNNYohkGfZ2L0EQ0bZUIKtXS4fQgQw9fXJVWtrtl9zu3X1+gbs65o1QqGb+F8hQ0btkhusCJOEcJ2yi29H8voXpcvLyW8XdQu0i1BTile24WD4hBeiPff8UtySugUWdTngV4twy5rrYFvy2apUhxtlsSbGcSfsCQvYXmRFyfde8NS1h1MI7pZda2vD1MyLM6S3g8fWzGzIUagh5K+UIcQY69YzbQronjftTROIL87QpNHF50qpY1hXmaaVvihDVsQU8OKM7UwA/bMTPfbGvz+dYTQRn8UQQsfrJ7B7KYYmvjltsOmUwJUI+OFSHuhrYohzts+9xSkjmTB48gYnL6JLG6AiaoPgc/phgdAnbqf0jHP156CTN8E6b+wTcA0ukhrZbCxtBUPcFyNYjMQy8zPWZDHuYNMo4U+TFVfj8ow9xRQi9CKza1Y546Yqi8BErlN41GWEBhiWn9aG4K9enJKnuDOKIbXtLbBVK8akNweOzVR44fGHbFK7J57UhukMf9Z4EkHM5xWrvw2kSq49jR/GCIYcJL8+PpZg4sICF3dWUC2+GUSoGS63OjY12UZvel5F0SwSe2vUmQy8NJ8vNBXEqBz+dJp+Oh344aR9HMObrasxpJcU4r9HjH7S4+he4ECHKnojcBcnZluF489/JYzOqu1uXJgkA09Os6HgZWEutLyIAJFun2R4XlLqnQ1r0aZqbqsn8R1o2qZt6IAndHMQZVgDtB4q02xHtVb8vldKBjeeZblqxGK6wZcawUiHL6S0vAFQ68TDcbuhNsHacBE5I9XhxJL80603bUMhB+dqNeKX2B5SbcSYFmRHvl9TYxZxfA5IFz3hp/14/2D4YbvW9iOV08PHQouNT+xkdgdchVHtnk0mpQ1ROPDVq5o/6+05CtNkJb5Ex9b14qdaZNrhME2dbsP577UFZxbkL/zJkSNHjhw5cuTIkSNHjhw5cuTIkSNHjhw5cuTIkSNHjhw5cuTIkSNHjhxfOf4PhcWnQb//rTkAAAAASUVORK5CYII=;" vertex="1" parent="1">
          <mxGeometry x="48" y="365" width="220" height="220" as="geometry" />
        </mxCell>
        <mxCell id="2uCZJji-12LwHRI4Txzx-7" value="&lt;h2 style=&quot;border-color: var(--border-color);&quot;&gt;BackEnd&lt;/h2&gt;" style="text;html=1;strokeColor=none;fillColor=none;align=center;verticalAlign=middle;whiteSpace=wrap;rounded=0;" vertex="1" parent="1">
          <mxGeometry x="70" y="320" width="60" height="30" as="geometry" />
        </mxCell>
        <mxCell id="2uCZJji-12LwHRI4Txzx-9" value="&lt;h2 style=&quot;border-color: var(--border-color);&quot;&gt;FrontEnd&lt;/h2&gt;" style="text;html=1;strokeColor=none;fillColor=none;align=center;verticalAlign=middle;whiteSpace=wrap;rounded=0;" vertex="1" parent="1">
          <mxGeometry x="60" y="20" width="60" height="30" as="geometry" />
        </mxCell>
        <mxCell id="2uCZJji-12LwHRI4Txzx-11" value="" style="shape=image;verticalLabelPosition=bottom;labelBackgroundColor=default;verticalAlign=top;aspect=fixed;imageAspect=0;image=data:image/png,iVBORw0KGgoAAAANSUhEUgAAASIAAACuCAMAAAClZfCTAAAAhFBMVEX///8AAADd3d319fWurq5ycnLh4eFISEiKior8/Py/v7/R0dGAgIDw8PDOzs7ExMScnJxnZ2eioqK0tLSoqKjm5uYzMzNYWFiTk5Pr6+teXl64uLhhYWE7OzvIyMhKSkofHx8WFhYNDQ0mJiaWlpaEhIR5eXlBQUEdHR0vLy9SUlI4ODiaUFcAAAAJgklEQVR4nO2da1v6PAzG1+EJEDkIoqiIB/w/6vf/fg9NNk5ubZOmdJfr/cJLTlv5sbRJmnZZ9pfVjd2AxmsWuwGN1+whdguars4wdgsar1HsBjReo0HsFjRdw17sFjRdg/PYLWi8/sVuQOM17sduQdM1XcduQdOV/xe7BU1XV13EbkLT9TyJ3YKma/0cuwVNV08lt9qsmXqM3YSm620RuwVN15NKmUazRmoZuwkN1436jN2EhmugXmM3oem6Uyl6NetcXcVuQsN1pu5iN6HhypVK82ZGdZRK0atZL+oydhMarrVK0atZPaVuY7eh2ZoplaJXs16V6sRuQ7M1Vyl6NetDpejVrKVK0atZD0ql6NWsL5WiV7POlXqP3YZma6pS9GpWX6Xo1axNeJ+iV7P+bRClymGTrlWKXs16VCl6NetiQ+gk0ess1/Iz6EHOEkwtw3+ckqnu24YQFOhf8E5fyJ6JGyuQ10z4VLEE/swI/mWsRVhsPoaVwy+80xeaWs90jm8c09u405kHIviqjKyq/lne8N+5F6Iz66kKRMqn2N0LURf+fyGeEjqiIno9FSKfjs8LUXYDD4iLWlZqF71eeiFyNjQvUwNE626HqPLjV3D+nHJG3eqv8oHpHLk+9KXpLfZeeIvIw9QAkUdG4kd/npIW0x6RW+UwGCTVio8EiNbAiG1qvoge4PTuC1se3C3zAq8iLwGiaU//feIewxdRdguMnOs4vzZvdlwHI4ZohEMvt9bUG1HhnTmO/Do0c41eBRF1fEzNHxG4yo5XxlC/1T5UowQR4YmZQaE/IsiNKXXv8M6BfuPc9biSiPAfnqkJIMrugZHDVMYl6XIXRYTXOsvUJBBBeky9Wb0UQOke0okhgvTvDekK3pcIooGTA9unuQfCiLI119REEGXgeFiyiBjQEQ4qjCh7Z5qaDKLC0TeO5t+OHdZW0ohypqkJIcr+08cxlb1OyCeSRoR9IT1hLoUIfiLDgeD1r9qXqySOKLsjOLk7SSEqUpA3dS+/6ldpSVx5RDP96Jt6DDFE2NfUZYnHpX9CkDwitHZX776UHCKMg6qdfDgLdReHAIgwV040NTlEGAdVZgJn9vGuQiEQgQdHzEEJIso+gURFscc75/oWzBftPXFLb4okIkTxu2Tok+eQBEGEqSOSqYkiQoO6PnoWXW+6WxsGUYdsaqKIionLwyphDOAY2fUwiPAXs8+d7CSLqJh8PLhinvUznF2bAiHC5whjhzAiHPn3vTOYRrInSioUClFGNDVhRMXk4+Toca3TbVIwRH2aqUkjKiYfy1ADryrerk3BEJEmGQIgwsnHVfHgu9oNcFI4RDBn7uzsyyPan3zE2JY0n72TGKLfnmJ+2BuYJY+omHzUozzOjXwwjxMQEaaOHE0tAKLt5CPOOrB3bQqJCLoDR1MLgQiz1JfZkyJ6IIcKimjmbmohEBUGhgkkcvS6VVBEmDpyWl8BiMbDHkGP9nALJx+PvUiiwiKC1JGTqXGq1Bzyq//K93oU0AVGNHA1tUCIBsVbfcowxRDVTHrAyOtgaoEQFV21V8FzaERQi+ow3gZCVB6WXRqWnQARREf2OYdiROtSZG/ZbIuTP6CFR4TZdqupBRn0oVyvEH/dYnhE8LJ156QgiDDPjzMi/NWvJ0DUdTG1EIiQzaQI1thbFYghMlTM3Dhc6AEQYY5Iz3hgsMa9p8cpEEHVkcXUAiBCtxE69Vf4l+k+ngQRTGyZcxHyiDD4wFQs1oswK/BPgyi3ujHiiDCELY+IOTXezWFOgwh+UqOpSSPCRMguPMQ1eay844kQQdWRqSRaGhFOpO1yRNh3v0adJLIgmllMTRgRTsfutwk9AM5yMDFEtlhap44MBXSyiOBbHU29oh/JWJN/MkTQG9SbmiyiFVjV0ZPvR7bnqtMhGhj7S1FEWFp8bNYY09I3kT0dIogDaiMlSURYJfM7kYeZEfKU7AkRwShTR0EQEWYaq0qtnva8SXedElHHYGqCiDDwqIo2cEKNGojQEHV7w/IrPl4vFtc4qgIilyCxV29qcoiuDJdKv/YCM4iGqFPmFNDcFVaCOSOCkLuagxgirJKpO9J9TTdlEhkRVBBqQqvxeIWM3BFltaYmhQi96PpkOVohKRDhISr7Ho2KhEj/xquqF6QQ4c4W9ZWo2JdXNqFOLET59tt86HVL56XFOei6ZtgVQgTTv8ZgCLsISs0jC9FyW07UWS4fSIjA8a1YDSaDKHf4/uhXEuYeuVfRz17MTEKkv0XFTf5kEL2q6qMfaGWxxWPx+iLtX9z3S0okRDCo/DY1EUSYo7bNQF5YevTK95MRoX+hXkaQtKchgtTRL1OTQPToOKJjh+WyoB/EQ5TNis3B1LhLRqTDyV97xAggwuJGF78Qhz3X9bFMRNrRvoL1i18FIkLko3/F4wUaAoigOU7RBTpPrrUQbETw8APGBioi2G3h6Df0R4S7A7k1A11wx707vBCB+a/piAa/Tc0b0VJRjoCBnFvlvBuiznAI48QAB6OzUTndAszIiCB1dMjaF5Et8DgWFK671UJYET0MsAFQoTPcbp9S2ElPjyB0RNBhHnzCF9E30dnBvt2pFsKGaIrR1x1clfkrRoB9tRejPXAQ6R/9bf8JT0Q4lUjZicO9FsKG6A57tWUxxhflXtA1/jwXbggDEcDdb58fIpfA41jOtRA2RNdFp4Zu2XYQ2O53qn84DiL40N5n/BBBU6j3LndNQVr7ol7hE3Zv15+jvTzL8OPzeoTfkYUIZpR3DwHRed4nChuEFwR1NhovPftoLpa7Jq+GuzkwDebuoIvdZ+n752MHZl09Ew8RpI62n2Ii0hPQOD/G2VjKrRYiIiLISpRBgAcirPnk1FdhCtJWCyGBaMxEpDuD0tSY+13PyxQZa9VrUQthuQChz4p1J1Ad4qVbbpn1rTw3W//76ire7gJtUj+ZmlWjZGpWzT3va9AC6e6IW1ffFvWTqVk1SqZm1dxv7Wob1GWGWG1SnkzNqkkyNasWydRs6r55rRNvhfJkalZNkqlZtUj3lbRp0x1x79bTGuXJ1KyaJFOzapFMzaZNd5RMzaKcd7eeVmma7rlt1RP9FiJtU9dne8GWKE+mZtU0mZpVC89ClTbIZ/u8lugimZpV05/YLWi+5pRbiLRU/A28W6M8mZpVE97WcK3SnL8pbGvE3IWxTcq59+1okSa0e5e2UuLbX/89dZIDaVXOvNFSm7RMdaJWUW7q3lJ1/8a82v/itlwBGdYyKgAAAABJRU5ErkJggg==;" vertex="1" parent="1">
          <mxGeometry x="48" y="60" width="233.33" height="140" as="geometry" />
        </mxCell>
        <mxCell id="2uCZJji-12LwHRI4Txzx-13" value="" style="shape=image;verticalLabelPosition=bottom;labelBackgroundColor=default;verticalAlign=top;aspect=fixed;imageAspect=0;image=data:image/png,iVBORw0KGgoAAAANSUhEUgAAAOEAAADhCAMAAAAJbSJIAAAAflBMVEUAAAD///8FBQVVVVXw8PDJyckcHBx4eHgICAjp6emvr6+fn58LCwv8/PxpaWkXFxeDg4PQ0NDg4ODz8/O8vLzi4uLW1taOjo4oKCghISFycnJFRUVaWlo7OzvExMRhYWGoqKiKiopQUFAyMjKbm5tAQEAuLi61tbWFhYVKSkorCLfgAAAI8klEQVR4nO2biXaqQBKGKcUFFRUQEBfEJRLf/wWnqppWoNvkJpHcmTv1nZMcKHr7ey260XEEQRAEQRAEQRAEQRAEQRAEQRAEQRAEQRAEQRAEQRAEQRAEQRAEQRAEQRAEQRD+y+jNbNZZ78+DWpP9caq2oN+jN7Zm8MOgTxRaU7Vax69TKAiCIAiC8I8xW9isQ6v/NLQZFza3bmxNdWH11eyp2v1C4TO2f7sAXbPwrX3rH6KA1d8uQrfsfQCzn06CIEhSw5wmaC5fmPsixwSLFyZoIQeAgWEdoRX8fcu69sm8fGHuw8ia/Ss5UZlhbtgTMre774SM4SuzH7qdKwzAXuo+298atvWT2vgB3Ss8gGJkPKHeC4lpCl6af/cK40qhazw5s31Xs9wszfpTXqxwZvhEI9AcW0EXTtnuvtyhc74cz9NJWSxvfEPL6SLLsnVVaG3svxflJG126v1yWk4um/sK/GKFPcPt9O4KIyPokO2bu2nO92e6nERVrPCAd+ShFn4UAQUaRJ5SOtJpR5d7ErvEr2xl1olCgxQeTI2nUzLH91vu0BMqZ1SLVi2OPMs6Gc3AESmcDWphvGrVKWq2asLqWGFWL6q/bj9e8GO97C+57jPdlneCmkJuNlI4Cxth1MJaNiOOfkFho07BdFW4iaPqNYeKApd7tfhh6NUanxVOQStcVY0XxqpburqKyBZWKbx1rvDarFOL7xbfFSi1rtYCFxyPvYNqqUxbXVXya+VGDE74YM/VONE1485xtlunrDvvXOGqpdDMaMN2noHv/hqb9ATJEou7bohH2fA8UynnVZgjhFtdRV41m+849LljhXto0zfCsALy3bglPKdaX+4deqHNSqH28rgp74mo6kga3YQ7dNqxwsBQaPpuqrvtqw5NRWWpq8tUcaEC0vvlREslzo1aULCUaKrjlVUrd6lwZwi0uZyB6r7c7diFyy3RbpVCPe2yK9hyIfa+GS/pVmFiKapnhNqy/cj/2YMbWKL1K4X6ZYuHb8vTfbPECztVuLHkCPBuhHtMR3nr/sFWr4cV3Iat1+ffb0PPzBBxDc/1rEtWvQ7zFDHZjJajB85dofI3s0eFMD2dYVSLhAnsDIUv3E08WgXafDftFkzULb83xkaoRhuqpSXTdxfWzd372I7XXRtGNnnw3HcDXxeYl3W9LPSDav5vKiyrPlg98sh9V8NCj85JVWGdKZw+EXhvqhpps3GV8+XR4r8nXUUlo65QLbUxCevzbJzMqrUVcnrjmuO1e+hS4eKpQICrEZrXvMetnk31AI1Mhfca1GFopT1Dy1h0qLDl5TfIjdDkxtQG0Ky1zrxbFLaWTY+990MznnftTqFtbXpwM8LHrYVyUi/n/GGqh6m/twyqMXyKa8ac55+OdhNtfskDc6tp3l6+TzoFL62m9yJyXb8ZRvfm5LFN4Lzr98ZB5T4NQ9eNXr7nbvPX6pi+m7mGOKfj5TIyJt5WRuklnbcORRYbNO7s4V+GzV+r89It37/B/BOBr922/13Uwa/dX6vjPjsjthp79qC24+SvnBF/D8p19KlA9pqt5932jwi7Cfp9nvlrDV6c56/y3F+rY/pu/zuc+n/C6W8XUxAEQRB+gyffJlrD/vm3iU9cVKvfaQ9q/SGLIAhCjYV5xvoht3MHhZgM8nyV2idNRT+wbDxVnDD2oHz6ZVv+8QbIbhWG07XjlLk65XmzHOd9F56vxzQVqy1L//A87Pyxn1j7FaL66WC1x1M8iToK6l87cGT180mOPAJwfXDXjgfq7WyW3+ty/Aj2058jhnCg12CfNpy3mx31LNrb2+6ww+xHu55WeN7MqaF3J+e0eWwazum8ZQOQZbv9kDYTdyPUtN6RsNPO2d9o7/c0ulGyqGJPqfZ11/XpA6scLqjwbU/xZretc93tnfkH9f0dhdTHctqKoTMTb++4dLgbYbXS4ad7Ugpp39/HLgcRWe8bwnPeasQYG8gj6G/VnvyNtj124GOKS+dMm75J5tCnFjHkaNdd0edT0+HC8XzaEZ86e4icIwywW3mf7Lx+XWGKWZdQrKnEF5g4B4ixYcv13PdY4RHC29yHLZYzP03B1Udr3IZ9H9bYjsUm82CzLrCoCXaMKRTOAOsigDRLYYWVuEFNHiavu2KKSvLRmHb7ksMUovUZXDrKSk/JKz81Vwqx5hzfT49LD86UT4HVGwPex7AmhQl1qBV2KPDPVCLdjebghzEdH25IKjbP8piiiiWUmPAbKwT3/Xj0XecdigMEsB88vuDcrTw+kOH0sP6UwoQ++Yjspf1zHjONUjjBisUK9rw4vqGctxBmM5fvvT2WC/vhgQ5XJljeBXVnPXuywuBIY3FA/yKKkjiZHy2opKjwCj7bMjRc4ApLPs6g/HkCWQRYPZ4aF9s9KyzpWFwprM1N34dnmh3gsIvoO5jrmua4lT+gzX68zs7cSwd0nBbAu8MfWvgYer1WCquTXVZ44uPu85rG9YQGGbehV9nCKEocz8PxMObFYQs+Cr1gRK1QtaFHJcB/7c/mv0sMcRLzJ3gphMuCP1VTcwnmtcRJlhUewL+UNPywRaYhTS8QXR0902iFWAf5aECNgKsIdWdSWEIwWtFkVdDO8orOCFZqmUzAWw0oK1bIvTTCXP2giLA8y1eNxcBzXW/A4+riYerkVZRuTFPJEUcJLmgHOu0axXyNwpYuJFi9EQc5RNVZ35yPxGYrHyL++Cl26WR1FW3481p/hSvNKYpwIXCjBY4JnowXJU69IYpNXOwYsfd2dUMUlhcQTajOitcobHTy4aJpVPe92jV9UVp/k7t/ZlxdzIZj42lvOHvcqdHXzFA96PEfKqxeIH/226Reo3ROQ2ivdd9AuQa21Or3tSQ+OK8wgtG/d3UC3GsH+yrjVg692v+x9bLKJi+zr8Voa/koBl0e8tQaQxD+PexzzEfPjHnjDy/t89bX8/gqxkjn/+OHYWyfEMaty8/mDTO1Jwm3Y/TaMQRBEARBEARBEARBEARBEARBEARBEARBEARBEARBEARBEARBEARBEARBEARBEARBEP6P+A8HNW543zeQcwAAAABJRU5ErkJggg==;" vertex="1" parent="1">
          <mxGeometry x="300" y="50" width="160" height="160" as="geometry" />
        </mxCell>
      </root>
    </mxGraphModel>
  </diagram>
</mxfile>
